<?xml version="1.0" encoding="utf-8"?>
<!-- Generator: Adobe Illustrator 16.0.0, SVG Export Plug-In . SVG Version: 6.00 Build 0)  -->
<!DOCTYPE svg PUBLIC "-//W3C//DTD SVG 1.1//EN" "http://www.w3.org/Graphics/SVG/1.1/DTD/svg11.dtd">
<svg version="1.1" id="Capa_1" xmlns="http://www.w3.org/2000/svg" xmlns:xlink="http://www.w3.org/1999/xlink" x="0px" y="0px"
	 width="350px" height="121.466px" viewBox="0 0 350 121.466" enable-background="new 0 0 350 121.466" xml:space="preserve">
<g>
	<path fill="#2D6DF6" d="M281.327,107.549c-9.479,2.737-17.077,4.071-22.193,3.365c-4.453-0.657-6.684-2.736-7.375-3.508
		c-0.113-0.089-0.224-0.188-0.177-0.335c0.03-0.156,0.146-0.282,0.347-0.316l1.719-0.137c3.799-0.265,10.584-0.464,18.497-1.648
		c9.152-1.361,23.845-4.041,30.563-6.712c0.153,0.038,0.249,0.169,0.127,0.412C298.383,101.352,289.278,105.274,281.327,107.549
		 M303.528,102.65c-4.26,2.915-10.032,5.717-16.949,8.113c-7.01,2.433-14.558,4.503-22.772,5.854
		c-0.155,0.05-0.285,0.151-0.326,0.313c0,0.104,0.041,0.22,0.106,0.28c1.351,1.074,3.1,1.703,5.247,1.933
		c2.645,0.297,5.835-0.057,9.501-1.019c3.263-0.866,6.376-2.307,9.908-4.005c3.357-1.626,6.561-3.514,9.28-5.463
		c2.787-1.979,4.884-3.931,6.189-5.641C303.731,102.779,303.65,102.675,303.528,102.65 M269.016,27.431
		c1.705,1.827,3.904,3.139,6.593,3.983l0.199,0.066c0.751,0.204,45.529,11.989,57.389,15.189c5.185,1.392,9.293,2.51,11.216,3.061
		c0.206,0.015,0.305-0.067,0.332-0.188c0-0.093-0.058-0.19-0.173-0.24c-7.492-3.008-53.633-20.708-71.016-27.363l-7.318-2.831
		c-0.247-0.028-0.368-0.015-0.463,0.081c-0.071,0.079-0.085,0.217-0.077,0.28c0.062,0.623,0.438,3.952,1.931,6.223
		C268.056,26.354,268.521,26.918,269.016,27.431 M270.949,9.819c0.898,1.102,1.748,1.817,3.386,2.805
		c0.547,0.333,1.098,0.688,1.729,0.985l4.127,2.091c2.348,1.188,36.93,17.3,41.979,19.808c5.982,2.94,11.951,5.754,14.564,7.067
		c0.262,0.051,0.388-0.029,0.317-0.333c-6.439-4.014-31.186-19.586-48.853-30.496l-12.669-7.66l-2.316-1.422l-4.305-2.606
		c-0.238-0.088-0.346-0.066-0.435,0c-0.134,0.05-0.176,0.165-0.176,0.251c-0.047,0.592-0.098,3.84,0.9,6.317
		C269.66,7.715,270.234,8.878,270.949,9.819 M302.106,110.394c-0.06-0.008-0.154,0.008-0.207,0.044
		c-5.726,5.638-14.188,8.81-16.987,9.674c-0.159,0.019-0.267,0.143-0.299,0.294c0,0.136,0.102,0.29,0.221,0.354
		c0.438,0.218,3.84,2.046,10.287-1.215c3.67-1.853,5.525-4.841,7.184-8.813C302.366,110.492,302.226,110.402,302.106,110.394
		 M343.3,62.989c-2.88,0.816-13.854,3.646-23.549,6.105c-8.385,2.161-17.799,4.729-17.799,4.729
		c-0.987,0.245-0.628,0.652-0.52,0.802c0.246,0.396,0.793,1.248,1.418,2.301c1.504,2.521,3.552,2.196,5.384,1.554
		c0.341-0.114,33.783-14.06,35.284-15.073c0.262-0.142,0.095-0.264,0.08-0.346C343.566,62.96,343.389,62.989,343.3,62.989
		 M328.613,86.176l-0.211,0.078c-4.417,3.668-11.152,9.558-18.126,15.491c-0.663,0.533-0.916,1.516-1.189,2.715
		c-0.443,1.978-1.459,4.57-1.459,4.57c-0.197,0.59,0.081,0.835,0.643,0.257c5.376-5.789,17.282-18.952,20.507-22.714
		C328.843,86.323,328.748,86.199,328.613,86.176 M349.791,54.069c-5.941-1.098-78.196-13.912-78.242-13.912
		c-0.129-0.015-0.279,0.065-0.391,0.166c-0.053,0.135-0.018,0.281,0.017,0.429c1.17,3.736,3.99,7.476,8.864,8.986
		c0.564,0.172,1.04,0.23,1.58,0.283c0,0,61.271,4.012,68.094,4.487c0.172,0,0.287-0.073,0.287-0.192
		C350,54.196,349.913,54.083,349.791,54.069 M346.782,58.197c-2.157,0.062-6.569,0.082-12.091,0.1
		c-6.362,0.029-14.22,0.058-21.555,0.073c-9.847,0.029-25.49,0.13-25.49,0.13c-0.102,0.013-0.223,0.064-0.301,0.172
		c-0.076,0.115-0.076,0.216,0.01,0.318c0.205,0.664,1.121,2.334,2.106,3.377c1.97,2.042,4.103,3.112,6.323,3.345
		c0.265,0.026,0.524,0.026,0.795,0.026c0.263,0,0.523-0.035,0.827-0.083c0.296-0.038,46.868-6.594,49.39-6.996
		c0.114-0.023,0.199-0.111,0.223-0.203C347.02,58.333,346.911,58.202,346.782,58.197 M339.558,69.491
		c-3.207,1.974-11.56,7.085-18.689,11.371c-3.999,2.426-9.041,5.241-11.651,6.87c-0.306,0.19-0.552,0.185-0.406,0.991
		c0,0,0.119,0.775,0.2,1.698c0.279,3.868,1.85,3.442,4.189,1.65l0.274-0.223c8.047-6.627,22.984-19.194,26.238-21.929
		C339.794,69.638,339.713,69.538,339.558,69.491"/>
	<path fill="#2D6DF6" d="M204.795,27.552c-16.013,0.021-31.072,11.818-31.728,34.788c-0.584,20.89,10.299,35.515,28.706,35.515
		c15.132,0,20.446-10.548,20.446-10.548c0.857,7.062,4.683,9.214,12.271,9.214V27.552H204.795z M221.494,68.187
		c0,9.549-5.471,18.633-17.366,18.633c-10.632,0-18.248-7.146-17.763-24.342c0.475-16.502,8.422-23.758,18.911-23.758
		c0.824,0,1.595-0.036,2.346-0.099v0.013h13.872V68.187z M114.88,41.153l0.012,37.16c0,12.822-12.783,19.11-25.844,19.11
		c-13.464,0-24.99-6.288-24.99-19.11V27.552c5.618,0,11.998,1.84,12.014,12.041l0.1,35.785c0,6.981,5.249,10.481,13.268,10.481
		c7.618,0,13.384-3.5,13.384-10.481l-0.044-47.825C111.107,27.552,114.88,31.121,114.88,41.153 M51.146,77.643
		c0,10.727-8.696,18.879-23.871,18.879H2.251V85.379l24.608-0.19c7.955-0.044,11.226-3.172,11.226-8.354
		c0-3.401-1.895-6.715-7.195-8.144l-12.813-3.393C6.496,62.219,0,56.471,0,46.244c0-10.988,8.692-18.653,23.872-18.67l24.65-0.021
		c-0.014,9.422-6.911,11.35-12.703,11.35H22.722c-6.549,0-9.666,2.517-9.666,7.673c0,4.946,3.701,6.703,7.754,7.824l14.723,4.042
		C46.894,61.53,51.146,66.842,51.146,77.643 M173.176,27.552c0,5.896-1.72,11.35-12.257,11.35h-3.572
		c-9.284,0-14.214,5.475-14.214,14.618v43h-12.015V53.93c0-17.758,10.274-26.378,25.194-26.378H173.176z"/>
</g>
</svg>
