<svg xmlns="http://www.w3.org/2000/svg" viewBox="0 0 64 64" role="img" aria-label="Huelmo Seguros">
  <circle cx="32" cy="32" r="31" fill="#ffffff"/>
  <circle cx="32" cy="32" r="30" fill="none" stroke="#0b7a3b" stroke-width="2"/>

  <path
    d="M32 53c-2.7-7.6-3.1-15.3-1.2-22.8 1.8-7.1 5.6-13.1 11.4-18"
    fill="none"
    stroke="#0b7a3b"
    stroke-width="4.8"
    stroke-linecap="round"
  />
  <path
    d="M31 36c-4.5-7-10.2-11-17.1-12M31 38c5.7-5.8 11.9-8.9 18.6-9.2M29.8 44c-5.7-3.4-11-4.7-16-4M35.5 26c-3.9-5.6-8.4-9.1-13.6-10.4"
    fill="none"
    stroke="#0b7a3b"
    stroke-width="3.6"
    stroke-linecap="round"
  />

  <g fill="#0b7a3b">
    <ellipse cx="44.3" cy="10.9" rx="3" ry="5.2" transform="rotate(31 44.3 10.9)"/>
    <ellipse cx="35.2" cy="7.4" rx="2.8" ry="5" transform="rotate(-5 35.2 7.4)"/>
    <ellipse cx="25.8" cy="12.6" rx="2.8" ry="4.7" transform="rotate(-24 25.8 12.6)"/>
    <ellipse cx="16.8" cy="20.3" rx="5" ry="2.4" transform="rotate(21 16.8 20.3)"/>
    <ellipse cx="10.9" cy="27.1" rx="4.6" ry="2.5" transform="rotate(17 10.9 27.1)"/>
    <ellipse cx="53.2" cy="23.6" rx="5.4" ry="2.5" transform="rotate(20 53.2 23.6)"/>
    <ellipse cx="55.5" cy="31.1" rx="4.3" ry="2.3" transform="rotate(1 55.5 31.1)"/>
    <ellipse cx="49.9" cy="38.8" rx="5.2" ry="2.4" transform="rotate(-22 49.9 38.8)"/>
    <ellipse cx="18" cy="46.6" rx="4.8" ry="2.4" transform="rotate(-23 18 46.6)"/>
    <circle cx="23.5" cy="36.4" r="3"/>
    <circle cx="43.9" cy="31.6" r="3"/>
    <circle cx="37.1" cy="20.1" r="2.9"/>
    <circle cx="22.9" cy="28.6" r="2.8"/>
    <circle cx="43.2" cy="43.7" r="2.8"/>
  </g>
</svg>
